<?xml version="1.0" encoding="utf-8"?>
<!-- Generator: Adobe Illustrator 16.0.0, SVG Export Plug-In . SVG Version: 6.00 Build 0)  -->
<!DOCTYPE svg PUBLIC "-//W3C//DTD SVG 1.1//EN" "http://www.w3.org/Graphics/SVG/1.1/DTD/svg11.dtd">
<svg version="1.1" id="Layer_1" xmlns="http://www.w3.org/2000/svg" xmlns:xlink="http://www.w3.org/1999/xlink" x="0px" y="0px" viewBox="444.24 204.033 75 150" preserveAspectRatio="xMidyMid meet" enable-background="new 444.24 204.033 75 150" xml:space="preserve"
	>
<path fill="#C94434" d="M514.011,220.327c-0.006-0.395,0.095-0.71,0.238-0.984c-3.32-4.21-8.354-6.499-11.472-11.005
	c-0.011-0.012-0.015-0.024-0.023-0.039c-3.315-0.382-6.69,0.074-10.011,0.119c-0.849,1.106-1.712,2.195-2.649,3.22
	c0.024,0.108,0.076,0.196,0.087,0.319c0.399,5.329,2.445,11.726,0.815,16.973c-0.204,0.663-0.624,1.06-1.105,1.258
	c-2.186,2.696-5.061,4.729-7.051,7.604c-0.034,0.047-0.072,0.084-0.107,0.127c-0.444,1.201-2.022,2.037-3.245,0.904
	c-2.522-2.34-4.959-4.869-6.792-7.853c-0.568-0.925-0.312-1.814,0.271-2.385c-1.082-5.282-0.28-10.76-1.056-16.085
	c-0.029-0.192,0.007-0.354,0.022-0.527c-1.055-0.917-1.907-2.048-2.649-3.255c-3.175-0.114-6.32,0.321-9.489,0.074
	c-3.408,4.453-7.509,8.207-11.763,11.74c-0.002,0.002-0.004,0.002-0.006,0.004c0.379,7.154,1.424,14.503-0.006,21.588
	c0.004,0.004,0.008,0.004,0.012,0.008c5.373,5.233,11.831,10.145,15.638,16.846c0.49,0.861,0.306,1.689-0.179,2.264
	c0.428,0.325,0.735,0.831,0.739,1.557c0.028,5.292,2.864,72.673-1.945,72.673c0.955,0,1.542,0.591,1.77,1.325
	c3.915,4.191,7.371,8.82,11.257,13.041c3.6,0.46,7.388-0.051,10.933-0.655c0.453-0.075,0.838,0.029,1.182,0.201
	c4.518-2.893,7.729-7.704,11.228-11.762c0.042-0.052,0.094-0.064,0.137-0.105c-0.056-0.195-0.118-0.384-0.116-0.624
	c0.237-25.317-0.498-50.641,0.295-75.954c0.019-0.599,0.249-1.047,0.572-1.375c0.024-0.29,0.103-0.591,0.282-0.898
	c3.622-6.192,11.203-8.283,14.746-14.571c0.263-0.469,0.624-0.711,1.005-0.847c-0.231-0.315-0.398-0.704-0.387-1.222
	C515.389,234.761,514.111,227.583,514.011,220.327z"/>
<path fill="#FFFFFF" d="M518.226,218.054c-3.312-4.787-8.809-7.041-12.091-11.783c-0.108-0.153-0.227-0.28-0.354-0.391
	c-0.055-0.716-0.482-1.342-1.4-1.479c-3.803-0.563-7.561-0.147-11.377-0.084c-0.736-0.419-1.765-0.419-2.312,0.299
	c-1.132,1.491-2.266,2.98-3.535,4.343c-0.506,0.54-0.612,1.154-0.506,1.727c-0.241,0.319-0.404,0.724-0.363,1.27
	c0.342,4.572,2.151,10.365,1.146,15c-2.065,2.69-4.688,4.797-6.847,7.391c-1.444-1.428-2.82-2.948-3.972-4.638
	c0.254-0.416,0.369-0.941,0.224-1.559c-1.281-5.421-0.372-11.222-1.18-16.741c-0.041-0.268-0.132-0.471-0.233-0.663
	c0.032-0.563-0.128-1.13-0.561-1.483c-1.121-0.915-1.911-2.033-2.645-3.302c-0.329-0.568-0.79-0.861-1.274-0.945
	c-0.276-0.199-0.592-0.352-0.996-0.378c-3.458-0.219-6.95,0.568-10.395,0.074c-0.669-0.099-1.218,0.137-1.636,0.52
	c-0.296,0.096-0.586,0.289-0.844,0.627c-3.416,4.472-7.531,8.234-11.795,11.781c-0.456,0.377-0.65,0.82-0.666,1.26
	c-0.319,0.328-0.528,0.798-0.494,1.426c0.358,6.949,1.564,14.282,0.07,21.158c-0.175,0.802,0.095,1.434,0.53,1.882
	c-0.093,0.554,0.034,1.15,0.557,1.659c5.1,4.966,11.416,9.664,15.031,16.019c0.129,0.223,0.288,0.379,0.452,0.522
	c-0.248,0.317-0.427,0.709-0.425,1.235c0.071,13.99-0.138,28.113,0.381,42.084c0.248,6.564,0.769,12.593-0.192,19.157
	c-0.7,4.795-1.115,9.201-0.414,14.021c0.074,0.516,0.441,0.919,0.881,1.187c0.073,0.112,0.109,0.228,0.208,0.335
	c3.965,4.231,7.45,8.917,11.383,13.176c0.159,0.42,0.498,0.739,1.021,0.897c0.072,0.036,0.14,0.059,0.212,0.079
	c0.015,0.004,0.021,0.012,0.037,0.017c0.04,0.003,0.078,0.003,0.117,0.008c0.179,0.04,0.354,0.072,0.527,0.047
	c4.17,0.52,8.36,0.059,12.494-0.637c0.529,0.369,1.207,0.491,1.926,0.061c5.101-3.04,8.621-8.23,12.484-12.719
	c0.56-0.65,0.602-1.395,0.382-2.04c0.446-0.324,0.771-0.835,0.778-1.578c0.237-25.268-0.494-50.533,0.29-75.794
	c0.113-0.117,0.233-0.209,0.326-0.369c1.784-3.05,5.041-4.983,7.719-7.059c2.724-2.115,5.286-4.419,7.027-7.511
	c0.487-0.866,0.301-1.694-0.186-2.271c0.713-0.233,1.306-0.849,1.337-1.861c0.197-7.212-1.056-14.337-1.174-21.536
	C518.576,219.936,518.886,219.005,518.226,218.054z M514.571,244.097c-3.543,6.289-11.124,8.379-14.746,14.571
	c-0.18,0.307-0.258,0.61-0.282,0.898c-0.323,0.328-0.554,0.775-0.572,1.375c-0.793,25.314-0.058,50.634-0.295,75.954
	c-0.002,0.24,0.059,0.427,0.116,0.624c-0.043,0.041-0.095,0.051-0.137,0.104c-3.498,4.059-6.708,8.87-11.228,11.763
	c-0.345-0.172-0.729-0.275-1.182-0.2c-3.545,0.604-7.335,1.114-10.933,0.654c-3.886-4.218-7.342-8.85-11.257-13.04
	c-0.228-0.735-0.815-1.326-1.77-1.326c4.809,0,1.973-67.381,1.945-72.673c-0.004-0.724-0.311-1.231-0.739-1.557
	c0.484-0.575,0.669-1.405,0.179-2.264c-3.808-6.702-10.266-11.615-15.638-16.846c-0.004-0.004-0.008-0.004-0.012-0.008
	c1.43-7.084,0.386-14.434,0.006-21.587c0.002-0.002,0.003-0.002,0.006-0.004c4.253-3.535,8.355-7.287,11.763-11.74
	c3.169,0.248,6.314-0.188,9.489-0.074c0.742,1.208,1.594,2.338,2.649,3.255c-0.015,0.174-0.049,0.336-0.022,0.528
	c0.776,5.327-0.025,10.803,1.057,16.084c-0.584,0.571-0.84,1.461-0.272,2.385c1.833,2.984,4.269,5.513,6.792,7.854
	c1.223,1.133,2.801,0.296,3.245-0.904c0.035-0.043,0.073-0.08,0.107-0.127c1.99-2.875,4.865-4.905,7.051-7.604
	c0.481-0.201,0.901-0.596,1.105-1.258c1.63-5.246-0.416-11.642-0.815-16.973c-0.011-0.125-0.062-0.213-0.087-0.319
	c0.938-1.025,1.803-2.113,2.649-3.22c3.318-0.043,6.693-0.5,10.011-0.119c0.009,0.014,0.013,0.027,0.023,0.039
	c3.12,4.507,8.151,6.795,11.472,11.005c-0.144,0.276-0.244,0.589-0.238,0.984c0.102,7.256,1.378,14.434,1.177,21.7
	c-0.013,0.518,0.153,0.904,0.387,1.222C515.195,243.385,514.834,243.628,514.571,244.097z"/>
</svg>
