<?xml version="1.0" encoding="utf-8"?>
<!-- Generator: Adobe Illustrator 16.0.0, SVG Export Plug-In . SVG Version: 6.00 Build 0)  -->
<!DOCTYPE svg PUBLIC "-//W3C//DTD SVG 1.1//EN" "http://www.w3.org/Graphics/SVG/1.1/DTD/svg11.dtd">
<svg version="1.1" id="Layer_1" xmlns="http://www.w3.org/2000/svg" xmlns:xlink="http://www.w3.org/1999/xlink" x="0px" y="0px" viewBox="436.238 204.248 75 150" preserveAspectRatio="xMidyMid meet" enable-background="new 436.238 204.248 75 150"
	 xml:space="preserve">
<path fill="#C94434" d="M502.017,247.234c-8.605,5.126-17.886,8.058-27.195,11.624c-10.375,3.977-19.961,9.796-30.7,12.749
	c-3.418,3.081,4.065,7.033,6.79,7.33c0.558,0.066,0.974,0.328,1.297,0.669c5.032,1.455,7.884,6.228,8.736,11.354
	c2.965-0.05,5.933-0.153,8.894-0.207c0.587-5.146-1.622-9.608-3.928-14.284c-0.031-0.063-0.026-0.123-0.049-0.184
	c-2.202-0.146-2.076-3.84,0.368-4.112c7.287-0.82,13.518-5.121,19.989-8.254c5.688-2.757,11.607-4.981,17.488-7.288
	c0.142-0.357,0.394-0.684,0.788-0.946c1.62-1.07,2.805-3.471,2.297-5.463C506.13,247.656,504.163,247.524,502.017,247.234z"/>
<path fill="#C94434" d="M449.215,255.476c0.153-0.043,0.286-0.024,0.428-0.033c0.141-0.093,0.263-0.201,0.438-0.263
	c8.588-3.009,16.497-7.357,24.853-10.888c9.022-3.813,18.362-6.768,26.962-11.558c0.033-0.018,0.06-0.016,0.092-0.032
	c0.155-0.321,0.384-0.626,0.774-0.852c1.979-1.151,2.616-4.023,1.229-5.939c-1.124-1.55-3.654-1.477-5.553-1.606
	c-0.095,0.077-0.15,0.172-0.267,0.238c-17.224,9.98-38.105,12.819-54.547,23.9c-0.138,0.301-0.34,0.578-0.644,0.817
	c-1.721,1.345-1.408,3.252,0.098,4.645C444.768,255.465,447.006,256.108,449.215,255.476z"/>
<path fill="#C94434" d="M441.857,231.268c1.441,1.139,3.219,1.717,5.02,1.945c0.049-0.741,0.5-1.407,1.472-1.571
	c6.661-1.123,12.19-4.885,18.491-7.06c7.101-2.451,14.088-5.116,20.896-8.326c0.004,0,0.006,0,0.008,0
	c0.061-0.089,0.087-0.179,0.158-0.263c3.273-3.584-1.04-6.728-4.627-7.055c-0.324-0.03-0.609-0.12-0.852-0.254
	c-13.112,6.441-27.653,9.672-40.438,16.658c-0.016,0.02-0.017,0.041-0.035,0.056C440.167,227.333,439.587,229.476,441.857,231.268z"
	/>
<path fill="#C94434" d="M497.471,273.305c-0.807-0.182-1.213-0.706-1.37-1.312c-4.531-0.021-9.503,4.352-12.015,7.65
	c-3.532,4.63-3.484,11.118-4.628,16.633c-0.091,0.443-0.303,0.746-0.554,0.988c1.479,0.879,1.767,3.414-0.291,3.695
	c-4.069,0.562-8.222,0.293-12.32,0.282c-2.35,0-11.922-1.044-13.335,1.415c-0.238,0.42-0.558,0.649-0.897,0.803
	c-2.235,5.633-1.44,20.455,4.343,20.504c0.679,0.004,1.176,0.293,1.505,0.709c0.895,0.128,1.705,0.757,1.684,1.95
	c-0.144,9.872,2.729,24.252,15.564,23.518c10.386-0.6,11.821-14.215,10.489-22.378c-0.342-2.085,2.065-3.185,3.279-2.22
	c0.213-0.066,0.438-0.127,0.705-0.11c7.844,0.408,6.425-6.777,5.673-12.45c-0.202-1.482-0.51-12.945-1.664-12.605
	c-1.724,0.506-2.735-1.189-2.432-2.553c-0.143-0.188-0.274-0.396-0.356-0.663c-1.212-3.893-0.959-7.725,0.977-11.358
	C492.34,284.828,499.857,273.836,497.471,273.305z"/>
<path fill="#FFFFFF" d="M448.309,237.479c1.315,0.032,1.967-0.987,1.967-2.024c6.262-1.259,11.718-4.536,17.645-6.878
	c7.329-2.893,14.723-5.371,21.872-8.744c0.412-0.194,0.651-0.48,0.82-0.79c0.055-0.048,0.114-0.064,0.165-0.122
	c2.439-2.676,3.387-6.042,1.372-9.287c-1.721-2.771-4.973-4.277-8.087-4.738c-0.581-0.59-1.457-0.891-2.397-0.412
	c-13.69,7.013-29.075,10.142-42.473,17.658c-0.604,0.335-0.893,0.829-0.975,1.35c-2.047,2.725-2.822,6.054-0.667,9.135
	C439.927,236.026,444.401,237.384,448.309,237.479z M441.948,225.397c0.017-0.019,0.019-0.04,0.034-0.056
	c12.784-6.985,27.326-10.217,40.438-16.658c0.243,0.135,0.528,0.224,0.851,0.254c3.59,0.327,7.903,3.471,4.627,7.055
	c-0.069,0.083-0.097,0.173-0.157,0.263c-0.002,0-0.004,0-0.007,0c-6.809,3.21-13.793,5.875-20.896,8.326
	c-6.302,2.174-11.83,5.937-18.491,7.06c-0.972,0.164-1.421,0.828-1.472,1.571c-1.8-0.225-3.579-0.806-5.02-1.945
	C439.587,229.476,440.167,227.333,441.948,225.397z"/>
<path fill="#FFFFFF" d="M450.295,259.473c0.19-0.052,0.314-0.153,0.463-0.238c0.134-0.021,0.258-0.003,0.405-0.054
	c9.585-3.356,18.457-8.185,27.799-12.136c8.403-3.552,16.973-6.264,24.987-10.731c0.403-0.224,0.632-0.53,0.792-0.858
	c0.027-0.014,0.051-0.01,0.074-0.024c3.483-2.021,4.779-6.399,3.401-10.162c-1.737-4.728-6.322-4.636-10.495-5.176
	c-0.909-0.119-1.478,0.324-1.742,0.95c-17.336,9.995-38.254,12.757-54.763,24.051c-0.429,0.296-0.688,0.671-0.818,1.075
	c-2.895,2.622-3.6,6.37-1.036,9.704C441.907,259.173,446.344,260.603,450.295,259.473z M442.98,249.26
	c0.304-0.238,0.506-0.517,0.644-0.817c16.442-11.083,37.324-13.92,54.547-23.9c0.116-0.066,0.172-0.161,0.267-0.238
	c1.898,0.129,4.429,0.056,5.553,1.606c1.387,1.917,0.747,4.791-1.229,5.939c-0.391,0.226-0.619,0.531-0.774,0.852
	c-0.032,0.016-0.059,0.014-0.092,0.032c-8.603,4.792-17.939,7.745-26.962,11.558c-8.357,3.53-16.265,7.878-24.853,10.888
	c-0.175,0.062-0.295,0.17-0.438,0.263c-0.143,0.009-0.275-0.013-0.428,0.033c-2.209,0.632-4.447-0.011-6.136-1.571
	C441.573,252.512,441.26,250.607,442.98,249.26z"/>
<path fill="#FFFFFF" d="M508.118,244.827c-1.334-1.163-3.106-1.342-4.794-1.562c-0.571-0.553-1.412-0.783-2.295-0.232
	c-9.496,5.905-20.086,9.063-30.432,13.03c-9.121,3.499-17.455,8.596-26.856,11.335c-0.425-0.088-0.892-0.004-1.369,0.35
	c-0.044,0.03-0.07,0.065-0.114,0.095c-0.694,0.19-1.094,0.637-1.283,1.163c-2.395,2.571-2.553,5.777,0.004,8.855
	c1.923,2.317,5.054,4.105,8.091,4.872c0.239,0.269,0.552,0.486,1.01,0.574c4.436,0.812,6.282,4.674,6.959,8.849
	c0.018,0.11,0.071,0.172,0.103,0.271c-0.353,1.199,0.262,2.733,1.86,2.724c3.717-0.021,7.43-0.188,11.147-0.249
	c0.896,0.7,2.314,0.671,2.969-0.423c0.811-0.575,1.034-1.717,0.651-2.615c0.85-5.835-1.188-10.966-3.741-16.244
	c4.236-1.049,8.162-2.92,12.138-4.942c7.632-3.879,15.359-7.189,23.32-10.323c0.62-0.241,1.008-0.687,1.204-1.199
	c2.992-2.058,4.725-5.8,4.117-9.477C510.485,247.749,509.575,246.1,508.118,244.827z M504.494,255.685
	c-0.394,0.262-0.646,0.588-0.79,0.946c-5.878,2.304-11.799,4.531-17.487,7.288c-6.476,3.137-12.702,7.437-19.989,8.254
	c-2.443,0.274-2.571,3.965-0.367,4.112c0.025,0.062,0.02,0.121,0.048,0.184c2.306,4.676,4.516,9.139,3.928,14.284
	c-2.962,0.052-5.928,0.155-8.895,0.207c-0.852-5.126-3.703-9.897-8.736-11.354c-0.321-0.341-0.737-0.603-1.296-0.669
	c-2.724-0.297-10.209-4.248-6.791-7.33c10.739-2.955,20.325-8.772,30.7-12.749c9.307-3.568,18.591-6.499,27.195-11.624
	c2.144,0.292,4.111,0.422,4.773,2.988C507.299,252.214,506.113,254.615,504.494,255.685z"/>
<path fill="#FFFFFF" d="M500.008,269.85c-0.035-0.779-0.472-1.506-1.46-1.72c-5.614-1.24-10.739,2.318-14.796,5.895
	c-6.34,5.583-6.592,13.312-8.218,21.151c-0.172,0.827,0.129,1.484,0.606,1.938c-5.226,0.499-10.666-0.105-15.895,0.072
	c-2.339,0.083-5.799,0.072-8.314,1.251c-0.614-0.196-1.3-0.109-1.881,0.537c-5.422,6.011-4.588,27.808,5.486,29.069
	c0.19,13.038,5.654,27.045,20.926,26.166c11.468-0.659,14.199-14.783,13.435-24.631c9.893,0.365,10.62-7.853,9.548-16.053
	c-0.565-4.286,1.125-16.686-4.664-17.355c-0.009-0.039,0-0.07-0.011-0.111c-2.311-7.434,3.962-12.239,6.625-18.463
	C502.665,274.624,502.669,271.294,500.008,269.85z M491.824,285.798c-1.935,3.629-2.187,7.468-0.975,11.358
	c0.079,0.268,0.211,0.475,0.356,0.664c-0.303,1.363,0.709,3.061,2.432,2.551c1.154-0.338,1.463,11.123,1.664,12.607
	c0.751,5.672,2.169,12.857-5.673,12.45c-0.268-0.018-0.491,0.042-0.706,0.11c-1.215-0.967-3.621,0.133-3.279,2.217
	c1.33,8.165-0.106,21.78-10.49,22.381c-12.833,0.735-15.707-13.647-15.562-23.519c0.021-1.192-0.79-1.825-1.685-1.951
	c-0.328-0.414-0.826-0.704-1.504-0.706c-5.783-0.049-6.576-14.872-4.341-20.506c0.338-0.153,0.659-0.384,0.896-0.805
	c1.41-2.456,10.985-1.413,13.335-1.413c4.098,0.011,8.249,0.281,12.321-0.282c2.052-0.281,1.765-2.816,0.289-3.695
	c0.25-0.24,0.465-0.544,0.552-0.989c1.146-5.518,1.098-12,4.63-16.633c2.512-3.297,7.485-7.67,12.014-7.649
	c0.157,0.605,0.564,1.13,1.371,1.311C499.857,273.836,492.34,284.828,491.824,285.798z"/>
</svg>
