<?xml version="1.0" encoding="utf-8"?>
<!-- Generator: Adobe Illustrator 16.0.0, SVG Export Plug-In . SVG Version: 6.00 Build 0)  -->
<!DOCTYPE svg PUBLIC "-//W3C//DTD SVG 1.1//EN" "http://www.w3.org/Graphics/SVG/1.1/DTD/svg11.dtd">
<svg version="1.1" id="Layer_1" xmlns="http://www.w3.org/2000/svg" xmlns:xlink="http://www.w3.org/1999/xlink" x="0px" y="0px" viewBox="442.487 204.996 75 150" preserveAspectRatio="xMidyMid meet" enable-background="new 442.487 204.996 75 150"
	 xml:space="preserve">
<g>
	<path fill="none" d="M503.687,240.684c-0.442-14.784-13.147-21.401-25.543-21.401c-2.817,0-5.621,0.335-8.331,0.995
		c-0.203,0.049-0.409,0.074-0.614,0.074c-0.212,0-0.424-0.026-0.629-0.078c-8.765,4.526-14.593,19.016-9.062,31.41
		c3.259,7.301,11.401,9.368,16.234,9.942c0.224-0.033,0.45-0.05,0.677-0.05c0.489,0,0.974,0.08,1.43,0.231
		c0.667,0.038,1.341,0.056,2.011,0.056c1.996,0,3.961-0.163,5.843-0.484C496.775,259.492,504.002,251.176,503.687,240.684z"/>
	<path fill="#C94434" d="M505.237,261.908c6.5-7.601,12.358-18.241,8.476-28.256c-5.64-14.563-17.795-26.156-33.929-26.156
		c-2.724,0-5.561,0.33-8.5,1.033c-17.963,4.299-30.585,22.903-24.823,40.405c3.855,11.708,13.086,20.139,24.914,23.769
		c1.011,10.462,0.988,20.939,0.792,31.424c-1.408,0.032-1.794,0.098-3.204,0.25c-0.965,0.104-1.573,0.728-1.822,1.454
		c-0.426,0.321-0.719,0.823-0.712,1.517c0.11,11.037,1.918,21.976,1.197,33.019c-0.09,1.382-0.087,2.811,0.134,4.183
		c-0.069,1.186-0.11,2.373-0.104,3.566c0.005,0.859,0.463,1.428,1.067,1.716c0.153,0.574,0.598,1.051,1.414,1.186
		c3.157,0.52,7.23,1.497,11.021,1.497c3.502,0,6.763-0.833,8.843-3.626c2.878-3.866,0.774-11.277,0.768-15.683
		c-0.015-8.301-0.294-16.599-0.869-24.879c1.067-1.091,0.598-3.441-1.416-3.468c-0.008,0-0.015-0.001-0.022-0.001
		c-0.281-0.106-0.579-0.16-0.875-0.16c-0.242,0-0.481,0.036-0.705,0.11c-1.692-0.054-1.342-0.139-3.031-0.246
		c-0.448-10.564,0.419-21.196,0.826-31.757C491.54,268.939,499.596,268.502,505.237,261.908z M486.138,263.851
		c-1.983,0.339-4.108,0.521-6.279,0.521c-0.857,0-1.72-0.028-2.585-0.087c-0.261-0.133-0.558-0.2-0.856-0.2
		c-0.188,0-0.377,0.027-0.556,0.081c-7.801-0.832-15.453-4.215-18.693-11.474c-5.154-11.549-1.434-29.091,10.683-34.872
		c0.224-0.107,0.441-0.153,0.648-0.153c0.251,0,0.486,0.067,0.698,0.176c2.92-0.711,5.943-1.069,8.945-1.069
		c14.042,0,27.617,7.823,28.095,23.836C506.6,252.609,498.129,261.808,486.138,263.851z"/>
	<path fill="#FFFFFF" d="M516.099,232.759c-6.633-17.13-20.549-27.772-36.315-27.772c-2.976,0-6.039,0.372-9.103,1.104
		c-10.018,2.397-18.682,8.906-23.772,17.858c-4.638,8.158-5.66,17.305-2.877,25.756c3.84,11.664,12.883,20.643,24.949,24.856
		c0.749,8.615,0.83,17.248,0.673,27.214c-0.122,0.013-0.25,0.027-0.385,0.043l-0.584,0.063c-1.603,0.172-2.958,1.104-3.68,2.486
		c-0.736,0.802-1.14,1.861-1.128,3.003c0.045,4.513,0.372,9.044,0.688,13.425c0.459,6.378,0.935,12.973,0.515,19.409
		c-0.11,1.675-0.071,3.138,0.118,4.46c-0.069,1.255-0.099,2.391-0.093,3.464c0.009,1.361,0.586,2.563,1.585,3.378
		c0.621,1.047,1.693,1.764,3.027,1.982c0.727,0.12,1.504,0.265,2.317,0.416c2.807,0.523,5.989,1.116,9.126,1.116
		c4.938,0,8.604-1.566,10.902-4.654c2.666-3.581,2.092-8.702,1.584-13.22c-0.165-1.472-0.321-2.861-0.323-3.947
		c-0.015-8.2-0.29-16.337-0.818-24.203c0.611-1.194,0.682-2.657,0.135-3.947c-0.644-1.513-2.035-2.511-3.691-2.677
		c-0.441-0.123-0.897-0.186-1.36-0.186c-0.334,0-0.663,0.033-0.982,0.099c-0.104-0.005-0.195-0.009-0.276-0.014
		c-0.181-7.029,0.176-14.198,0.522-21.152c0.11-2.224,0.224-4.512,0.319-6.786c1.892-0.936,3.888-1.662,5.979-2.422
		c4.9-1.782,9.967-3.625,14.043-8.39C512.545,257.262,520.821,244.941,516.099,232.759z M484.677,272.803
		c-0.407,10.561-1.274,21.193-0.826,31.757c1.689,0.107,1.339,0.192,3.031,0.246c0.224-0.074,0.463-0.11,0.705-0.11
		c0.296,0,0.594,0.054,0.875,0.16c0.008,0,0.015,0.001,0.022,0.001c2.014,0.026,2.483,2.377,1.416,3.468
		c0.575,8.28,0.854,16.578,0.869,24.879c0.007,4.405,2.11,11.816-0.768,15.683c-2.08,2.793-5.341,3.626-8.843,3.626
		c-3.791,0-7.864-0.978-11.021-1.497c-0.816-0.135-1.261-0.611-1.414-1.186c-0.604-0.288-1.062-0.856-1.067-1.716
		c-0.007-1.193,0.035-2.381,0.104-3.566c-0.222-1.372-0.225-2.801-0.134-4.183c0.722-11.043-1.086-21.981-1.197-33.019
		c-0.007-0.693,0.286-1.195,0.712-1.517c0.249-0.727,0.857-1.351,1.822-1.454c1.41-0.152,1.796-0.218,3.204-0.25
		c0.196-10.484,0.219-20.962-0.792-31.424c-11.827-3.63-21.059-12.061-24.914-23.769c-5.763-17.501,6.859-36.106,24.823-40.405
		c2.939-0.703,5.776-1.033,8.5-1.033c16.134,0,28.29,11.593,33.929,26.156c3.883,10.015-1.976,20.655-8.476,28.256
		C499.596,268.502,491.54,268.939,484.677,272.803z"/>
	<path fill="#FFFFFF" d="M478.143,216.774c-3.001,0-6.024,0.358-8.945,1.069c-0.212-0.109-0.447-0.176-0.698-0.176
		c-0.207,0-0.425,0.046-0.648,0.153c-12.117,5.781-15.837,23.323-10.683,34.872c3.24,7.258,10.892,10.642,18.693,11.474
		c0.179-0.054,0.368-0.081,0.556-0.081c0.298,0,0.595,0.067,0.856,0.2c0.865,0.059,1.729,0.087,2.585,0.087
		c2.17,0,4.295-0.182,6.279-0.521c11.991-2.042,20.462-11.241,20.101-23.241C505.76,224.597,492.186,216.773,478.143,216.774z
		 M479.859,261.863c-0.669,0-1.344-0.019-2.011-0.056c-0.456-0.151-0.941-0.23-1.43-0.231c-0.228,0-0.454,0.017-0.677,0.05
		c-4.833-0.575-12.975-2.641-16.234-9.942c-5.531-12.394,0.297-26.884,9.062-31.41c0.206,0.052,0.417,0.078,0.629,0.078
		c0.205,0,0.411-0.024,0.614-0.074c2.71-0.66,5.514-0.995,8.331-0.995c12.396,0,25.101,6.617,25.543,21.401
		c0.315,10.492-6.911,18.809-17.984,20.695C483.82,261.7,481.854,261.863,479.859,261.863z"/>
</g>
</svg>
