<?xml version="1.0" encoding="utf-8"?>
<!-- Generator: Adobe Illustrator 16.0.0, SVG Export Plug-In . SVG Version: 6.00 Build 0)  -->
<!DOCTYPE svg PUBLIC "-//W3C//DTD SVG 1.1//EN" "http://www.w3.org/Graphics/SVG/1.1/DTD/svg11.dtd">
<svg version="1.1" id="Layer_1" xmlns="http://www.w3.org/2000/svg" xmlns:xlink="http://www.w3.org/1999/xlink" x="0px" y="0px" viewBox="438.896 206.671 75 150" preserveAspectRatio="xMidyMid meet" enable-background="new 438.896 206.671 75 150"
	 xml:space="preserve">
<path fill="#C94434" d="M454.259,285.552c3.161-2.959,6.362-5.906,8.505-10.303c0.113-0.229,0.248-0.399,0.393-0.524
	c-0.198-0.349-0.302-0.809-0.213-1.364c0.022-0.129,0.028-0.257,0.049-0.39c-5.703,1.962-11.767,1.032-17.373,3.501v3.091
	c2.904,1.68,5.592,3.938,8.438,5.785C454.145,285.402,454.192,285.481,454.259,285.552z"/>
<path fill="#C94434" d="M479.99,230.237c-1.594-5.608-3.225-11.204-4.302-17.026c-1.333,5.969-2.819,11.896-4.378,17.754
	C474.27,231.262,477.114,231.541,479.99,230.237z"/>
<path fill="#C94434" d="M499.687,284.37c0.052-0.023,0.083-0.063,0.14-0.076c2.794-0.677,5.318-2.374,7.712-4.402
	c-0.005-0.783-0.013-1.576,0.018-2.373c-5.273-2.81-11.052-3.465-16.6-4.809c0.011,0.226,0.028,0.453,0.032,0.677
	c0.014,0.572-0.158,0.982-0.404,1.248C493.941,277.214,496.889,280.729,499.687,284.37z"/>
<path fill="#C94434" d="M487.057,254.192c-0.721-2.576-1.821-5.08-2.582-7.421c-1.147-3.539-1.948-7.253-2.916-10.883
	c-0.227-0.849-0.459-1.696-0.693-2.54c-3.431,1.67-6.849,1.192-10.419,0.861c-1.848,6.544-4.85,12.816-5.09,19.94
	C470,261.088,481.268,257.752,487.057,254.192z"/>
<path fill="#C94434" d="M500.843,290.52c-3.677-4.896-7.431-10.08-11.984-13.407c-0.911-0.667-0.683-2.118-0.029-2.758
	c-0.149-0.255-0.261-0.558-0.27-0.968c-0.101-4.997-1.48-9.88-0.779-14.876c-0.01-0.359-0.052-0.719-0.088-1.076
	c-6.203,3.639-16.548,6.477-22.399,0.997c0.403,5.278,0.844,10.581-0.007,15.813c-0.074,0.452-0.249,0.741-0.461,0.932
	c0.274,0.462,0.356,1.1,0.036,1.757c-5.357,10.987-15.743,16.247-22.926,24.667c-0.025,1.7-0.068,3.403,0.009,5.098
	c2.415-1.85,5.158-2.281,7.911-3.318c4.983-1.884,10.123-2.888,14.862-5.838c1.411-0.879,2.642,1.971,1.237,2.863
	c-0.248,1.476-0.34,3.297-0.096,4.707c0.178,1.04,0.778,1.253,1.466,1.62c0.485,0.263,0.722,0.803,0.785,1.373
	c0.538,0.342,0.777,1.124,0.67,1.922c-0.051,0.392-0.073,0.79-0.086,1.188c3.17,0.846,6.569,1.044,9.763,0.826
	c0.648-0.041,6.044-1.248,5.905-1.487c-0.791-1.384,0.252-3.25,1.182-2.878c0.041-0.049,0.078-0.104,0.127-0.152
	c0.464-0.446,1.167-1.062,1.205-1.914c0.052-1.158-0.009-2.325,0.016-3.488c-0.178-0.266-0.303-0.604-0.305-1.064
	c-0.009-5.337,4.565-4.311,7.137-3.27c5.625,2.28,11.198,5.403,16.679,8.36c-0.011-1.939,0.051-3.849,0.499-5.708
	c-1.608-1.721-3.534-2.556-5.189-4.186C503.95,294.519,502.399,292.593,500.843,290.52z"/>
<path fill="#FFFFFF" d="M513.104,298.636c-1.22-1.532-2.565-2.583-4.024-3.641c-2.832-2.058-5.036-4.869-7.309-7.885
	c2.553-0.906,4.94-2.58,7.171-4.495c0.068-0.053,0.1-0.134,0.154-0.196c0.475-0.165,0.878-0.667,0.878-1.534
	c0-0.884-0.038-1.851-0.02-2.798c0.698-0.566,0.986-1.929,0.224-2.608c-0.036-1.325-1.271-1.919-1.973-1.146
	c-5.626-2.86-11.671-3.53-17.554-5.06c-0.393-3.229-0.938-6.487-0.549-9.671c0.077-0.211,0.127-0.455,0.127-0.748v-0.233
	c0-0.026-0.01-0.04-0.01-0.067c-0.003-0.129-0.014-0.258-0.019-0.389c-0.002-0.014-0.001-0.028-0.002-0.041
	c-0.253-6.989-4.016-14.073-5.638-20.496c-2.43-9.618-5.742-18.916-7.13-28.955c-0.101-0.737-0.456-1.086-0.857-1.168
	c-0.465-1.087-1.912-1.245-2.243,0.335c-2.012,9.572-4.272,19.431-7.13,28.594c-1.744,5.585-3.889,10.897-4.231,16.983
	c-0.245,0.265-0.407,0.672-0.373,1.252c0.283,4.848,0.938,9.833,0.727,14.724c-6.282,2.567-13.06,1.116-19.241,4.287
	c-0.514,0.263-0.891,0.812-0.891,1.606v5.604c0,1.124,0.669,1.643,1.304,1.586c0.007,0.005,0.011,0.013,0.019,0.017
	c2.61,1.437,5.02,3.462,7.532,5.182c-0.365,0.362-0.732,0.722-1.087,1.095c-3.386,3.555-7.114,6.354-10.4,10.093
	c-0.54,0.1-1.036,0.607-1.039,1.571c-0.011,2.938-0.098,5.84,0.195,8.762c0.054,0.537,0.244,0.877,0.494,1.057
	c0.408,0.697,1.196,1.057,1.84,0.303c2.822-3.299,7.54-3.683,11.029-4.892c3.478-1.204,6.924-2.189,10.269-3.824
	c-0.104,1.64-0.046,3.345,0.292,4.777c0.419,1.767,1.577,2.529,2.743,3.167c-0.056,0.559-0.095,1.12-0.113,1.678
	c-0.493,0.849-0.43,2.315,0.561,2.643c0.013,0.007,0.038,0.015,0.055,0.017c0.229,0.149,0.482,0.202,0.737,0.16
	c0.872,0.158,2.323,0.36,4.049,0.515c0.337-0.593,0.88-1.06,1.572-1.206c1.21-0.256,2.61-0.038,3.61,0.741
	c0.863-0.231,1.818-0.035,2.508,0.597c4.259-0.316,7.87-1.481,7.516-4.51c0.007-0.005,0.014-0.012,0.019-0.017
	c1.006-0.967,1.939-2.021,2.292-3.695c0.317-1.51,0.084-3.266,0.132-4.812c0.016-0.444-0.096-0.775-0.253-1.036
	c0.526-1.986,8.633,2.335,9.452,2.783c4.328,2.374,8.751,4.406,13.101,6.722c1.19,0.636,1.806-1.369,1.221-2.558
	c-0.054-2.241-0.227-4.663,0.453-6.734c0.093-0.277,0.116-0.546,0.108-0.802C513.546,299.741,513.505,299.142,513.104,298.636z
	 M490.988,273.387c-0.004-0.224-0.023-0.451-0.032-0.677c5.548,1.344,11.326,1.999,16.6,4.809c-0.028,0.797-0.022,1.59-0.018,2.373
	c-2.394,2.027-4.918,3.726-7.712,4.402c-0.057,0.013-0.088,0.053-0.14,0.076c-2.798-3.639-5.745-7.156-9.103-9.735
	C490.83,274.368,491.002,273.959,490.988,273.387z M475.688,213.21c1.077,5.823,2.708,11.418,4.302,17.026
	c-2.875,1.304-5.72,1.024-8.68,0.728C472.869,225.107,474.356,219.18,475.688,213.21z M470.445,234.209
	c3.569,0.332,6.988,0.809,10.418-0.861c0.235,0.845,0.469,1.691,0.694,2.54c0.968,3.63,1.769,7.344,2.916,10.881
	c0.761,2.344,1.861,4.848,2.582,7.422c-5.789,3.562-17.058,6.896-21.702-0.043C465.595,247.024,468.598,240.753,470.445,234.209z
	 M445.621,279.562v-3.091c5.605-2.469,11.668-1.539,17.373-3.501c-0.021,0.133-0.027,0.261-0.049,0.39
	c-0.089,0.554,0.015,1.016,0.213,1.364c-0.145,0.125-0.28,0.293-0.393,0.524c-2.143,4.396-5.344,7.344-8.505,10.303
	c-0.067-0.07-0.114-0.151-0.199-0.204C451.213,283.501,448.525,281.242,445.621,279.562z M510.401,306.145
	c-5.481-2.959-11.055-6.078-16.679-8.361c-2.571-1.041-7.146-2.068-7.136,3.269c0.001,0.463,0.126,0.804,0.304,1.067
	c-0.023,1.163,0.036,2.329-0.016,3.489c-0.037,0.852-0.741,1.465-1.204,1.912c-0.05,0.048-0.087,0.102-0.128,0.153
	c-0.93-0.373-1.973,1.492-1.181,2.877c0.138,0.24-5.259,1.446-5.905,1.488c-3.195,0.217-6.594,0.018-9.764-0.828
	c0.014-0.398,0.035-0.796,0.086-1.188c0.106-0.8-0.131-1.581-0.671-1.924c-0.064-0.567-0.298-1.111-0.784-1.373
	c-0.688-0.363-1.288-0.578-1.466-1.618c-0.244-1.409-0.152-3.231,0.096-4.707c1.405-0.894,0.176-3.745-1.236-2.863
	c-4.74,2.947-9.88,3.952-14.863,5.837c-2.753,1.039-5.495,1.471-7.91,3.317c-0.077-1.693-0.033-3.396-0.01-5.097
	c7.183-8.419,17.569-13.677,22.925-24.667c0.321-0.657,0.238-1.295-0.035-1.757c0.212-0.188,0.388-0.479,0.462-0.93
	c0.851-5.234,0.41-10.536,0.007-15.814c5.851,5.479,16.195,2.642,22.398-0.997c0.037,0.358,0.078,0.716,0.088,1.076
	c-0.7,4.995,0.679,9.879,0.779,14.875c0.009,0.411,0.121,0.715,0.27,0.968c-0.651,0.641-0.882,2.092,0.028,2.758
	c4.556,3.328,8.309,8.513,11.985,13.408c1.556,2.071,3.106,4,4.867,5.729c1.656,1.63,3.581,2.468,5.189,4.189
	C510.451,302.295,510.392,304.202,510.401,306.145z"/>
<g>
	<path fill="#C94434" d="M491.928,334.344c0.288-0.303,0.626-0.516,0.986-0.667c0.756-0.727,1.711-1.347,2.709-2.022
		c1.849-1.251,3.806-3.062,3.684-5.188c-0.195-3.416-2.992-5.343-6.582-6.086c-0.861-0.329-1.622-0.77-2.195-1.582
		c-0.191-0.271-0.554-0.412-0.907-0.412c-0.421,0-0.829,0.2-0.92,0.619c-0.148,0.684-0.31,1.387-0.722,1.892
		c-2.194,0.955-4.749,1.617-7.463,1.953c-0.013,0.002-0.024,0.002-0.036,0.002h-0.034c-0.018,0-0.037,0.001-0.057,0.005
		c-0.023,0.007-0.045,0.014-0.068,0.019c-0.073,0.009-0.144,0.021-0.216,0.029c-0.006,0.012-0.016,0.022-0.022,0.033
		c-0.713,0.189-1.386,0.47-1.882,0.943c-0.602,0.573-0.903,1.3-1.233,1.993c-0.047,0.098-0.057,0.199-0.044,0.298
		c-0.473,0.903-0.818,5.293-1.049,6.236c-0.32-0.951-0.76-5.334-1.332-6.221c-0.159-0.503-0.32-1.006-0.482-1.504
		c-0.318-0.978-1.058-1.615-2.149-1.744c-0.021-0.017-0.047-0.028-0.067-0.047c-2.393-0.276-4.687-0.794-6.722-1.554
		c-0.655-0.54-0.567-1.353-0.562-2.334c0.002-0.519-0.498-0.854-1.014-0.854c-0.245,0-0.493,0.075-0.693,0.242
		c-1.048,0.879-2.321,1.463-3.58,2.071c-3.394,0.803-5.99,2.715-6.177,6.002c-0.122,2.125,1.836,3.937,3.685,5.188
		c1.312,0.889,2.549,1.682,3.352,2.749c1.025,1.02,1.932,2.064,2.725,3.134c0.003-0.014,0.009-0.025,0.012-0.039
		c0.061,0.093,0.113,0.187,0.172,0.278c3.356,4.633,4.737,9.709,5.485,15.108c-0.104-1.639-0.042-3.142-0.526-4.545
		c0.091-3.067-0.483-5.888-1.714-8.599c-0.056-1.958-0.355-4.698,2.223-5.409c0.547-0.15,1.063-0.22,1.55-0.22
		c0.572,0,1.102,0.096,1.591,0.265c0.387,0.174,0.768,0.366,1.149,0.578c1.079,0.736,1.875,1.871,2.375,3.083
		c0.178,3.015,0.334,6.4,0.473,6.975c0.014-0.127,0.02-0.26,0.043-0.378c0.174-0.879,0.422-4.147,0.742-7.275
		c0.555-0.984,1.539-1.361,2.614-1.361c1.27,0,2.665,0.525,3.625,1.191c2.167,1.502,2.34,5.126,1.712,7.269
		c-0.029,0.099-0.012,0.183,0.022,0.258c-0.344,2.061-0.47,4.228-0.476,6.55c0,0.027,0.017,0.047,0.019,0.072
		c-0.033,0.747-0.053,1.521-0.136,2.327c-0.056,0.531,0.421,0.787,0.929,0.787c0.045,0,0.09-0.001,0.135-0.005
		c-0.013-4.909,0.485-9.991,2.834-14.43c0.368-0.299,0.623-0.701,0.665-1.158c0.063-0.102,0.121-0.205,0.187-0.306
		c0.273-0.495,0.566-0.986,0.9-1.473c0.007,0.054,0.024,0.104,0.038,0.156c0.319-0.409,0.663-0.81,1.027-1.202
		C490.95,335.453,491.413,334.888,491.928,334.344z"/>

		<line fill="none" stroke="#FFFFFF" stroke-width="0" stroke-linecap="round" stroke-linejoin="round" x1="463.546" y1="315.986" x2="463.547" y2="315.986"/>
	<path fill="#FFFFFF" d="M493.555,318.329c-0.445-0.188-0.688-0.371-0.892-0.658c-0.631-0.894-1.796-1.45-3.041-1.45
		c-1.685,0-3.073,0.981-3.377,2.387c-0.036,0.167-0.096,0.44-0.163,0.673c-1.722,0.66-3.705,1.144-5.795,1.412
		c-0.175,0.009-0.332,0.029-0.489,0.062c-0.005,0-0.01,0.001-0.015,0.003l-0.042,0.005c-0.276,0.036-0.54,0.11-0.781,0.219
		c-1.088,0.336-1.944,0.811-2.609,1.446c-0.168,0.159-0.319,0.323-0.456,0.488c-0.7-1.039-1.801-1.762-3.14-2.039
		c-0.186-0.062-0.38-0.105-0.581-0.129c-1.85-0.214-3.567-0.573-5.121-1.071c0-0.115,0.001-0.236,0.003-0.344l0.003-0.318
		c0.004-0.806-0.353-1.562-1.005-2.129c-0.658-0.571-1.572-0.899-2.509-0.899c-0.912,0-1.776,0.303-2.432,0.852
		c-0.738,0.619-1.735,1.099-2.792,1.607l-0.013,0.006c-4.688,1.2-7.492,4.07-7.711,7.909c-0.141,2.465,1.421,4.82,4.643,6.999
		l0.292,0.198c1.067,0.72,1.989,1.342,2.504,2.027c0.063,0.084,0.133,0.165,0.209,0.24c0.935,0.93,1.779,1.9,2.508,2.882
		c0.037,0.05,0.076,0.099,0.117,0.145c0.017,0.025,0.035,0.051,0.053,0.076c2.694,3.719,4.273,8.103,5.121,14.216
		c0.152,1.096,1.227,1.907,2.479,1.907c0.073,0,0.146-0.003,0.22-0.01c1.344-0.101,2.353-1.108,2.278-2.273
		c-0.022-0.357-0.037-0.707-0.051-1.05c-0.049-1.189-0.1-2.415-0.465-3.649c0.048-3.086-0.521-5.958-1.734-8.759l-0.002-0.066
		c-0.039-1.068-0.098-2.685,0.498-2.849c0.283-0.078,0.549-0.118,0.791-0.118c0.197,0,0.383,0.026,0.566,0.08
		c0.237,0.109,0.471,0.228,0.709,0.356c0.529,0.39,1.005,1.01,1.363,1.774c0.035,0.602,0.069,1.213,0.103,1.809
		c0.184,3.305,0.266,4.606,0.4,5.159c0.244,1.009,1.27,1.723,2.446,1.723c0.047,0,0.095-0.001,0.143-0.003
		c1.235-0.062,2.233-0.895,2.348-1.961l0.015-0.155l0.009-0.091c0.118-0.592,0.239-1.872,0.443-4.081
		c0.08-0.858,0.165-1.785,0.257-2.714c0.045-0.007,0.104-0.009,0.186-0.009c0.597,0,1.465,0.3,2.064,0.716
		c1.072,0.743,1.342,3.368,0.851,5.045c-0.08,0.27-0.107,0.547-0.084,0.821c-0.298,1.915-0.439,3.998-0.446,6.515
		c0,0.066,0.004,0.136,0.012,0.204l-0.01,0.23c-0.023,0.581-0.048,1.184-0.109,1.778c-0.086,0.82,0.209,1.6,0.832,2.188
		c0.64,0.607,1.582,0.955,2.587,0.955c0.135,0,0.27-0.006,0.405-0.019c1.271-0.119,2.232-1.051,2.229-2.157
		c-0.01-3.891,0.264-8.883,2.449-13.217c0.469-0.487,0.794-1.058,0.95-1.664c0.015-0.024,0.028-0.049,0.042-0.073
		c0.133-0.239,0.26-0.46,0.385-0.667c0.138-0.109,0.262-0.233,0.369-0.371c0.272-0.349,0.577-0.706,0.904-1.059
		c0.061-0.065,0.117-0.134,0.169-0.205c0.38-0.523,0.789-1.019,1.217-1.471c0.026-0.027,0.062-0.056,0.138-0.087
		c0.293-0.123,0.555-0.293,0.772-0.502c0.534-0.515,1.259-1.003,2.097-1.568l0.294-0.198c3.221-2.179,4.782-4.534,4.641-7
		C501.575,322.358,498.573,319.441,493.555,318.329z M489.463,337.081c-0.334,0.486-0.627,0.978-0.9,1.473
		c-0.065,0.101-0.123,0.204-0.187,0.306c-0.042,0.457-0.297,0.859-0.665,1.158c-2.349,4.438-2.847,9.521-2.834,14.43
		c-0.045,0.004-0.09,0.005-0.135,0.005c-0.508,0-0.984-0.256-0.929-0.787c0.083-0.807,0.103-1.58,0.136-2.327
		c-0.002-0.025-0.019-0.045-0.019-0.072c0.006-2.322,0.132-4.489,0.476-6.55c-0.034-0.075-0.052-0.159-0.022-0.258
		c0.628-2.143,0.455-5.767-1.712-7.269c-0.961-0.666-2.356-1.191-3.625-1.191c-1.075,0-2.059,0.377-2.614,1.361
		c-0.319,3.128-0.568,6.396-0.742,7.275c-0.023,0.118-0.029,0.251-0.043,0.378c-0.139-0.574-0.294-3.96-0.473-6.975
		c-0.5-1.212-1.296-2.347-2.375-3.083c-0.381-0.212-0.762-0.404-1.149-0.578c-0.489-0.169-1.02-0.265-1.591-0.265
		c-0.486,0-1.003,0.069-1.55,0.22c-2.578,0.711-2.279,3.451-2.223,5.409c1.231,2.711,1.805,5.531,1.714,8.599
		c0.485,1.403,0.422,2.906,0.526,4.545c-0.749-5.399-2.129-10.476-5.485-15.108c-0.059-0.092-0.112-0.186-0.172-0.278
		c-0.003,0.014-0.009,0.025-0.012,0.039c-0.793-1.069-1.7-2.114-2.725-3.134c-0.803-1.067-2.041-1.86-3.352-2.749
		c-1.849-1.251-3.807-3.062-3.685-5.188c0.188-3.287,2.784-5.199,6.177-6.002c1.259-0.608,2.532-1.192,3.58-2.071
		c0.2-0.167,0.448-0.242,0.693-0.242c0.516,0,1.017,0.336,1.014,0.854c-0.005,0.981-0.093,1.794,0.562,2.334
		c2.036,0.76,4.329,1.277,6.722,1.554c0.02,0.019,0.047,0.03,0.067,0.047c1.092,0.129,1.832,0.767,2.149,1.744
		c0.163,0.498,0.324,1.001,0.482,1.504c0.572,0.887,1.012,5.27,1.332,6.221c0.231-0.943,0.576-5.333,1.049-6.236
		c-0.013-0.099-0.003-0.2,0.044-0.298c0.331-0.693,0.631-1.42,1.233-1.993c0.496-0.474,1.169-0.754,1.882-0.943
		c0.006-0.011,0.017-0.021,0.022-0.033c0.073-0.009,0.144-0.021,0.216-0.029c0.023-0.005,0.045-0.012,0.068-0.019
		c0.02-0.004,0.039-0.005,0.057-0.005h0.034c0.012,0,0.023,0,0.036-0.002c2.714-0.336,5.269-0.998,7.463-1.953
		c0.412-0.505,0.573-1.208,0.722-1.892c0.091-0.419,0.499-0.619,0.92-0.619c0.354,0,0.716,0.141,0.907,0.412
		c0.573,0.812,1.334,1.253,2.195,1.582c3.59,0.743,6.387,2.67,6.582,6.086c0.122,2.125-1.835,3.937-3.684,5.188
		c-0.998,0.676-1.953,1.296-2.709,2.022c-0.36,0.151-0.698,0.364-0.986,0.667c-0.515,0.544-0.978,1.109-1.399,1.691
		c-0.364,0.393-0.708,0.793-1.027,1.202C489.487,337.186,489.47,337.135,489.463,337.081z"/>
</g>
</svg>
