<?xml version="1.0" encoding="utf-8"?>
<!-- Generator: Adobe Illustrator 16.0.0, SVG Export Plug-In . SVG Version: 6.00 Build 0)  -->
<!DOCTYPE svg PUBLIC "-//W3C//DTD SVG 1.1//EN" "http://www.w3.org/Graphics/SVG/1.1/DTD/svg11.dtd">
<svg version="1.1" id="Layer_1" xmlns="http://www.w3.org/2000/svg" xmlns:xlink="http://www.w3.org/1999/xlink" x="0px" y="0px"
	 width="730px" height="232.726px" viewBox="0 0 730 232.726" preserveAspectRatio="xMidyMid meet" enable-background="new 0 0 730 232.726" xml:space="preserve">
<g>
	<path fill="#231F20" d="M308.667,101.037l-3.431,5.541c-4.615-4.215-8.329-6.323-11.137-6.323c-5.539,0-11.454,5.299-17.757,15.896
		v34.794h-5.901V95.56h5.901v14.572h0.24c6.623-10.437,13.083-15.654,19.386-15.654C299.578,94.478,303.812,96.666,308.667,101.037z
		"/>
	<path fill="#231F20" d="M358.695,141.312v4.939c-5.099,3.851-8.829,5.775-11.197,5.775c-1.364,0-2.309-0.456-2.829-1.354
		c-0.524-0.903-0.906-2.74-1.145-5.507c-5.822,4.571-11.6,6.861-17.34,6.861c-4.17,0-7.704-1.359-10.594-4.095
		c-2.89-2.729-4.332-6.043-4.332-9.935c0-6.016,2.788-10.763,8.365-14.237c5.576-3.47,13.546-5.466,23.901-5.988v-7.042
		c0-7.542-4.095-11.317-12.28-11.317c-5.219,0-10.856,2.35-16.915,7.044v-6.082c6.26-3.931,12.218-5.897,17.878-5.897
		c5.017,0,9.15,1.232,12.398,3.703c3.253,2.464,4.88,6.05,4.88,10.745v34.49c0,1.889,0.438,2.836,1.323,2.836
		C351.928,146.251,354.561,144.599,358.695,141.312z M343.524,139.989v-17.28c-7.585-0.28-13.875,1.052-18.871,4.006
		c-5,2.947-7.496,6.707-7.496,11.283c0,2.573,1.04,4.74,3.127,6.502c2.087,1.768,4.697,2.65,7.827,2.65
		C333.17,147.15,338.307,144.764,343.524,139.989z"/>
	<path fill="#231F20" d="M372.962,95.56v9.634h0.246c4.61-7.143,10.692-10.715,18.231-10.715c6.265,0,11.261,2.008,14.992,6.021
		c3.734,4.013,5.597,9.57,5.597,16.676v33.77h-5.896v-31.543c0-12.764-5.019-19.146-15.054-19.146
		c-7.341,0-13.384,3.956-18.117,11.862v38.827h-5.897V95.56H372.962z"/>
	<path fill="#231F20" d="M475.241,66.845v84.099h-5.961v-4.335c-5.051,3.614-10.517,5.418-16.372,5.418
		c-7.868,0-14.502-2.778-19.895-8.34c-5.397-5.553-8.097-12.39-8.097-20.495c0-8.228,2.653-15.067,7.976-20.529
		c5.312-5.457,11.985-8.185,20.016-8.185c5.096,0,10.553,1.485,16.372,4.453V66.845H475.241z M469.28,141.191v-35.758
		c-5.297-3.449-10.679-5.178-16.133-5.178c-6.383,0-11.644,2.122-15.772,6.355c-4.134,4.231-6.196,9.641-6.196,16.218
		c0,6.702,2.209,12.282,6.616,16.734c4.421,4.458,9.935,6.689,16.557,6.689C459.487,146.251,464.465,144.563,469.28,141.191z"/>
	<path fill="#231F20" d="M562.465,99.175v6.378c-5.623-3.771-10.676-5.66-15.175-5.66c-3.328,0-6.137,0.901-8.427,2.703
		c-2.288,1.802-3.431,4.022-3.431,6.659c0,1.882,0.693,3.614,2.085,5.195c1.394,1.583,5.224,3.584,11.497,6.009
		c6.273,2.423,10.38,4.941,12.306,7.551c1.923,2.603,2.888,5.516,2.888,8.724c0,4.298-1.743,7.923-5.238,10.868
		c-3.49,2.951-7.806,4.425-12.941,4.425c-5.577,0-11.118-1.684-16.614-5.06v-5.776c6.541,3.372,12.34,5.061,17.399,5.061
		c3.413,0,6.207-0.901,8.393-2.711c2.192-1.807,3.285-4.11,3.285-6.921c0-1.923-0.714-3.698-2.145-5.322
		c-1.421-1.626-5.276-3.682-11.557-6.175c-6.278-2.494-10.351-4.953-12.219-7.378c-1.863-2.432-2.797-5.126-2.797-8.099
		c0-4.213,1.731-7.797,5.206-10.742c3.475-2.954,7.694-4.426,12.675-4.426C552.188,94.478,557.125,96.041,562.465,99.175z"/>
	<path fill="#231F20" d="M622.841,121.203h-43.643c-0.121,0.968-0.183,1.926-0.183,2.891c0,6.183,2.206,11.422,6.625,15.716
		c4.416,4.291,9.629,6.442,15.646,6.442c7.026,0,13.886-2.756,20.593-8.254v6.684c-6.342,4.894-13.447,7.346-21.309,7.346
		c-7.991,0-14.589-2.77-19.809-8.312c-5.217-5.529-7.827-12.576-7.827-21.129c0-8.103,2.409-14.814,7.228-20.132
		c4.813-5.317,10.875-7.975,18.182-7.975c6.859,0,12.656,2.396,17.396,7.193C620.475,106.466,622.841,112.979,622.841,121.203z
		 M579.98,116.451h35.877c-2.085-10.794-7.927-16.196-17.513-16.196c-4.538,0-8.459,1.417-11.771,4.245
		C583.259,107.333,581.062,111.314,579.98,116.451z"/>
	<path fill="#231F20" d="M678.945,141.312v4.939c-5.092,3.851-8.826,5.775-11.196,5.775c-1.364,0-2.309-0.456-2.828-1.354
		c-0.521-0.903-0.903-2.74-1.141-5.507c-5.822,4.571-11.599,6.861-17.343,6.861c-4.175,0-7.706-1.359-10.594-4.095
		c-2.886-2.729-4.334-6.043-4.334-9.935c0-6.016,2.792-10.763,8.369-14.237c5.576-3.47,13.544-5.466,23.901-5.988v-7.042
		c0-7.542-4.098-11.317-12.28-11.317c-5.22,0-10.865,2.35-16.92,7.044v-6.082c6.264-3.931,12.223-5.897,17.883-5.897
		c5.012,0,9.146,1.232,12.402,3.703c3.249,2.464,4.869,6.05,4.869,10.745v34.49c0,1.889,0.442,2.836,1.327,2.836
		C672.184,146.251,674.812,144.599,678.945,141.312z M663.78,139.989v-17.28c-7.583-0.28-13.877,1.052-18.873,4.006
		c-4.998,2.947-7.499,6.707-7.499,11.283c0,2.573,1.045,4.74,3.135,6.502c2.083,1.768,4.695,2.65,7.829,2.65
		C653.423,147.15,658.562,144.764,663.78,139.989z"/>
	<path fill="#231F20" d="M730,95.56l-41.455,83.738H682.5l19.367-39.119L678.53,95.56h6.189l20.096,38.665l19.142-38.665H730z"/>
</g>
<g>
	<path fill="#367F96" d="M141.691,92.081c4.792-4.056,9.216-11.427,9.216-22.669c0-9.579-4.792-18.795-14.189-18.795
		c-7.186,0-12.531,7.742-12.531,16.4C124.187,76.048,129.165,82.314,141.691,92.081z"/>
	<path fill="#367F96" d="M121.976,105.344c-4.971,5.343-7.736,13.085-7.736,20.271c0,17.687,12.157,25.983,24.505,25.983
		c8.292,0,17.137-4.979,21.927-10.692C147.038,127.084,137.642,118.979,121.976,105.344z"/>
	<path fill="#367F96" d="M116.364,0C52.097,0,0,52.097,0,116.362c0,64.267,52.097,116.364,116.364,116.364
		s116.364-52.097,116.364-116.364C232.729,52.097,180.632,0,116.364,0z M81.589,107.187c-2.578,0.921-4.423,0.37-5.712-0.734
		c-3.132-2.581-5.342-3.874-8.475-3.874c-3.502,0-7.186,2.396-10.32,9.584v34.275c0,11.42,1.111,12.159,15.293,13.45v5.895H21.893
		v-5.895c9.944-1.108,11.79-2.03,11.79-13.45v-40.17c0-9.399-1.476-10.136-9.951-12.161v-5.163c11.053-1.469,21.923-3.5,33.35-7.001
		v19.53h0.554c6.636-11.42,13.817-19.343,20.639-19.343c7.371,0,12.346,5.153,12.346,11.424
		C90.621,100.181,86.566,105.344,81.589,107.187z M212.815,166.153l-1.097,2.208c-18.243,0-29.3-4.234-31.698-6.629
		c-2.396-2.396-7.741-8.664-14.557-15.294c-11.425,14.924-23.216,21.923-35.565,21.923c-25.057,0-38.512-18.421-38.512-34.269
		c0-15.479,9.401-22.115,25.799-33.539c-7.371-7.182-12.344-15.292-12.344-26.166c0-16.397,15.293-30.774,33.537-30.774
		c18.423,0,31.321,11.427,31.321,26.722c0,6.449-2.942,11.053-7.925,15.109c-3.68,3.317-8.84,7.001-14.737,10.87
		c5.347,4.608,15.848,13.82,28.744,25.796c3.132-4.793,6.08-9.948,9.029-15.843c3.687-8.294,2.397-10.875-10.131-12.713v-6.271
		h43.668v6.271c-11.422,1.289-15.292,3.684-21.93,12.344c-5.156,6.449-9.766,13.45-15.479,21.561
		C192.734,138.878,204.158,153.068,212.815,166.153z"/>
</g>
</svg>
